<?xml version="1.0" encoding="UTF-8"?>
<svg id="Layer_1" data-name="Layer 1" xmlns="http://www.w3.org/2000/svg" width="64.15" height="18.02" viewBox="0 0 64.15 18.02">
  <path d="m8.4.43c2.18,0,4.07.83,5.67,2.49,1.6,1.66,2.4,3.73,2.4,6.21s-.81,4.67-2.42,6.36c-1.61,1.69-3.56,2.53-5.85,2.53s-4.26-.82-5.83-2.47c-1.57-1.65-2.36-3.77-2.36-6.39S.91,4.32,2.73,2.63C4.31,1.17,6.2.43,8.4.43Zm-.24.91c-1.5,0-2.71.56-3.62,1.67-1.13,1.39-1.7,3.42-1.7,6.1s.59,4.86,1.76,6.34c.9,1.12,2.09,1.69,3.57,1.69,1.58,0,2.88-.62,3.91-1.85,1.03-1.23,1.54-3.17,1.54-5.83,0-2.88-.57-5.02-1.7-6.44-.91-1.12-2.17-1.69-3.77-1.69Z" style="fill: #6344c6;"/>
  <path d="m22.15,0v15.07c0,.71.05,1.18.16,1.41.1.23.26.41.48.53s.62.18,1.2.18v.45h-5.57v-.45c.52,0,.88-.05,1.07-.16.19-.11.34-.29.45-.53s.16-.72.16-1.43V4.75c0-1.28-.03-2.07-.09-2.36-.06-.29-.15-.49-.28-.6-.13-.11-.29-.16-.49-.16-.21,0-.49.07-.82.2l-.21-.43,3.39-1.39h.56Z"/>
  <path d="m29.22,5.94v9.13c0,.71.05,1.18.15,1.42.1.24.26.41.46.53.2.12.57.17,1.11.17v.45h-5.52v-.45c.55,0,.93-.05,1.12-.16.19-.11.34-.29.45-.53.11-.25.17-.72.17-1.43v-4.38c0-1.23-.04-2.03-.11-2.39-.06-.26-.15-.45-.27-.55-.12-.1-.29-.16-.51-.16-.23,0-.51.06-.84.19l-.17-.45,3.42-1.39h.55Z"/>
  <path d="m28.19,1.85c.35,0,.64.12.89.37.24.24.37.54.37.89s-.12.64-.37.89c-.24.25-.54.37-.89.37s-.65-.12-.89-.37-.37-.55-.37-.89.12-.64.37-.89c.24-.24.54-.37.9-.37Z"/>
  <path d="m31.77,6.27h5.34v.46h-.35c-.32,0-.57.08-.74.24-.17.16-.25.37-.25.63,0,.29.09.63.26,1.03l2.64,6.27,2.65-6.51c.19-.46.29-.81.29-1.05,0-.12-.03-.21-.1-.29-.09-.12-.21-.21-.35-.25-.14-.04-.43-.07-.86-.07v-.46h3.71v.46c-.43.03-.73.12-.89.26-.29.25-.55.66-.78,1.24l-4.03,9.75h-.51l-4.05-9.59c-.18-.45-.36-.77-.52-.96-.17-.19-.38-.36-.63-.49-.14-.07-.42-.14-.83-.21v-.46Z"/>
  <path d="m46.96,10.55c0,1.69.4,3.01,1.23,3.97.83.96,1.8,1.44,2.91,1.44.74,0,1.39-.21,1.94-.61.55-.41,1.01-1.11,1.38-2.1l.38.25c-.17,1.13-.68,2.16-1.51,3.09s-1.88,1.4-3.14,1.4c-1.36,0-2.53-.53-3.5-1.59s-1.46-2.49-1.46-4.28c0-1.94.5-3.46,1.49-4.54s2.25-1.63,3.75-1.63c1.27,0,2.32.42,3.14,1.26s1.23,1.96,1.23,3.37h-7.85Zm0-.72h5.26c-.04-.73-.13-1.24-.26-1.54-.21-.46-.51-.83-.92-1.09-.41-.26-.84-.4-1.28-.4-.69,0-1.3.27-1.84.8-.54.53-.86,1.28-.95,2.23Z"/>
  <path d="m59.65,5.94v2.55c.95-1.7,1.93-2.55,2.93-2.55.46,0,.83.14,1.13.42.3.28.45.6.45.96,0,.32-.11.6-.32.82-.21.22-.47.33-.77.33s-.61-.14-.97-.43-.63-.43-.8-.43c-.15,0-.31.08-.48.25-.37.34-.76.9-1.15,1.67v5.44c0,.63.08,1.1.24,1.43.11.22.3.41.57.56.27.15.67.22,1.18.22v.45h-5.82v-.45c.58,0,1.01-.09,1.29-.27.21-.13.35-.34.43-.63.04-.14.06-.54.06-1.2v-4.4c0-1.32-.03-2.11-.08-2.36s-.15-.44-.3-.55-.32-.17-.54-.17c-.26,0-.55.06-.87.19l-.12-.45,3.43-1.39h.52Z"/>
</svg>